<?xml version="1.0" encoding="UTF-8"?>
<!DOCTYPE svg PUBLIC "-//W3C//DTD SVG 1.1//EN" "http://www.w3.org/Graphics/SVG/1.1/DTD/svg11.dtd">
<!-- Creator: CorelDRAW X6 -->
<svg xmlns="http://www.w3.org/2000/svg" xml:space="preserve" width="12.5957in" height="1.50438in" version="1.1" style="shape-rendering:geometricPrecision; text-rendering:geometricPrecision; image-rendering:optimizeQuality; fill-rule:evenodd; clip-rule:evenodd"
viewBox="0 0 12385 1479"
 xmlns:xlink="http://www.w3.org/1999/xlink">
 <defs>
  <style type="text/css">
   <![CDATA[
    .str0 {stroke:#201E1E;stroke-width:19.2971}
    .str1 {stroke:#C33437;stroke-width:19.2971}
    .fil0 {fill:none;fill-rule:nonzero}
    .fil1 {fill:#201E1E;fill-rule:nonzero}
    .fil2 {fill:#C33437;fill-rule:nonzero}
   ]]>
  </style>
 </defs>
 <g id="Camada_x0020_1">
  <metadata id="CorelCorpID_0Corel-Layer"/>
  <g>
   <path class="fil0 str0" d="M940 254l-644 0 0 347 593 0c44,0 76,10 98,29 22,19 32,45 32,77 0,32 -11,58 -32,78 -21,20 -54,30 -98,30l-593 0 0 402 666 0c45,0 79,11 102,31 23,21 35,49 35,83 0,33 -12,61 -35,81 -23,21 -57,31 -102,31l-777 0c-62,0 -107,-14 -134,-41 -27,-28 -41,-72 -41,-134l0 -1062c0,-41 6,-75 18,-101 12,-26 31,-45 57,-57 26,-12 59,-18 100,-18l755 0c46,0 80,10 102,30 22,20 33,47 33,80 0,34 -11,60 -33,81 -22,20 -56,30 -102,30z"/>
  </g>
  <g>
   <path id="1" class="fil0 str0" d="M1308 1310l0 -1140c0,-53 12,-92 35,-119 23,-27 55,-40 95,-40 39,0 72,13 96,40 24,27 36,66 36,120l0 1140c0,53 -12,93 -37,120 -25,27 -57,40 -95,40 -38,0 -70,-14 -94,-41 -24,-28 -36,-67 -36,-118z"/>
  </g>
  <g>
   <path id="2" class="fil0 str0" d="M2576 1000l-515 0c1,60 13,112 36,158 23,46 55,80 93,103 39,23 82,35 129,35 32,0 60,-4 86,-11 26,-7 51,-19 76,-35 25,-16 47,-33 67,-51 21,-18 47,-42 80,-73 13,-12 33,-17 58,-17 27,0 49,8 66,22 16,14 25,36 25,62 0,24 -10,51 -28,83 -19,32 -47,62 -85,91 -37,29 -85,54 -141,73 -57,19 -122,29 -196,29 -169,0 -300,-48 -394,-145 -94,-96 -140,-227 -140,-392 0,-78 12,-150 35,-216 23,-66 57,-123 101,-171 44,-47 99,-84 164,-109 65,-25 137,-38 216,-38 103,0 191,22 264,65 74,43 129,99 165,168 36,69 55,139 55,210 0,66 -19,109 -57,129 -38,19 -91,29 -160,29zm-515 -150l477 0c-6,-90 -31,-157 -73,-202 -42,-44 -97,-67 -166,-67 -66,0 -119,23 -161,68 -42,45 -68,112 -77,201z"/>
  </g>
  <g>
   <path id="3" class="fil0 str0" d="M3958 1144c0,33 -10,68 -30,105 -19,37 -49,73 -89,106 -40,34 -91,61 -152,81 -61,21 -130,31 -206,31 -162,0 -289,-47 -380,-142 -91,-95 -137,-222 -137,-381 0,-108 21,-203 63,-286 42,-83 102,-147 181,-192 79,-45 174,-68 283,-68 68,0 131,10 187,30 57,20 105,46 144,77 39,32 70,65 90,101 21,36 32,69 32,100 0,32 -12,58 -35,80 -24,22 -52,33 -85,33 -22,0 -40,-6 -54,-17 -14,-11 -31,-29 -49,-54 -32,-49 -66,-85 -101,-110 -35,-24 -80,-36 -133,-36 -78,0 -140,30 -188,91 -48,61 -71,143 -71,249 0,49 6,95 18,136 12,41 30,77 53,106 23,29 51,51 84,66 33,15 69,23 108,23 53,0 98,-12 135,-36 38,-24 71,-62 100,-112 16,-30 33,-53 52,-69 18,-17 41,-25 68,-25 32,0 59,12 80,37 21,24 32,50 32,78z"/>
  </g>
  <g>
   <path id="4" class="fil0 str0" d="M4201 424l29 0 0 -158c0,-42 1,-76 3,-100 2,-24 9,-45 19,-62 10,-18 25,-33 44,-44 19,-11 40,-17 64,-17 33,0 63,12 90,37 18,17 29,37 34,61 5,24 7,58 7,103l0 179 96 0c37,0 66,9 85,26 20,18 30,40 30,68 0,36 -14,60 -42,74 -28,14 -68,21 -120,21l-49 0 0 483c0,41 1,73 4,95 3,22 11,40 23,54 13,14 33,21 61,21 15,0 36,-3 62,-8 26,-5 47,-8 61,-8 21,0 40,9 58,26 17,17 25,38 25,63 0,42 -23,75 -69,97 -46,23 -113,34 -200,34 -82,0 -144,-14 -186,-41 -42,-28 -70,-66 -83,-115 -13,-49 -20,-114 -20,-195l0 -505 -35 0c-38,0 -67,-9 -87,-27 -20,-18 -30,-41 -30,-68 0,-27 11,-50 31,-68 21,-17 51,-26 91,-26z"/>
  </g>
  <g>
   <path id="5" class="fil0 str0" d="M5146 1090l0 220c0,53 -12,93 -37,120 -25,27 -57,40 -95,40 -38,0 -69,-13 -93,-40 -24,-27 -36,-67 -36,-119l0 -732c0,-118 43,-177 128,-177 43,0 75,14 94,41 19,28 30,69 32,123 31,-54 63,-95 97,-123 33,-28 77,-41 133,-41 55,0 109,14 161,41 52,28 78,64 78,110 0,32 -11,59 -33,80 -22,21 -46,31 -72,31 -10,0 -33,-6 -70,-18 -37,-12 -70,-18 -98,-18 -38,0 -70,10 -94,30 -24,20 -43,50 -57,90 -13,40 -23,87 -28,142 -5,55 -8,122 -8,201z"/>
  </g>
  <g>
   <path id="6" class="fil0 str0" d="M6658 935c0,79 -12,151 -36,217 -25,66 -60,123 -106,170 -46,48 -102,84 -166,109 -64,25 -136,38 -217,38 -80,0 -152,-13 -215,-38 -63,-26 -119,-62 -165,-110 -46,-48 -82,-104 -106,-169 -24,-65 -36,-137 -36,-216 0,-80 12,-153 36,-219 25,-66 60,-123 105,-170 46,-47 101,-83 166,-108 65,-25 136,-38 215,-38 80,0 152,13 217,38 65,26 120,62 167,110 46,47 82,104 106,170 24,65 36,138 36,217zm-264 0c0,-107 -24,-190 -71,-250 -47,-60 -110,-89 -190,-89 -52,0 -97,13 -136,40 -39,27 -69,66 -90,118 -21,52 -32,113 -32,182 0,69 11,129 31,180 21,51 51,91 89,118 39,27 85,41 137,41 80,0 143,-30 190,-90 47,-60 71,-143 71,-249z"/>
  </g>
  <path id="7" class="fil1" d="M940 254l-644 0 0 347 593 0c44,0 76,10 98,29 22,19 32,45 32,77 0,32 -11,58 -32,78 -21,20 -54,30 -98,30l-593 0 0 402 666 0c45,0 79,11 102,31 23,21 35,49 35,83 0,33 -12,61 -35,81 -23,21 -57,31 -102,31l-777 0c-62,0 -107,-14 -134,-41 -27,-28 -41,-72 -41,-134l0 -1062c0,-41 6,-75 18,-101 12,-26 31,-45 57,-57 26,-12 59,-18 100,-18l755 0c46,0 80,10 102,30 22,20 33,47 33,80 0,34 -11,60 -33,81 -22,20 -56,30 -102,30z"/>
  <path id="8" class="fil1" d="M1308 1310l0 -1140c0,-53 12,-92 35,-119 23,-27 55,-40 95,-40 39,0 72,13 96,40 24,27 36,66 36,120l0 1140c0,53 -12,93 -37,120 -25,27 -57,40 -95,40 -38,0 -70,-14 -94,-41 -24,-28 -36,-67 -36,-118z"/>
  <path id="9" class="fil1" d="M2576 1000l-515 0c1,60 13,112 36,158 23,46 55,80 93,103 39,23 82,35 129,35 32,0 60,-4 86,-11 26,-7 51,-19 76,-35 25,-16 47,-33 67,-51 21,-18 47,-42 80,-73 13,-12 33,-17 58,-17 27,0 49,8 66,22 16,14 25,36 25,62 0,24 -10,51 -28,83 -19,32 -47,62 -85,91 -37,29 -85,54 -141,73 -57,19 -122,29 -196,29 -169,0 -300,-48 -394,-145 -94,-96 -140,-227 -140,-392 0,-78 12,-150 35,-216 23,-66 57,-123 101,-171 44,-47 99,-84 164,-109 65,-25 137,-38 216,-38 103,0 191,22 264,65 74,43 129,99 165,168 36,69 55,139 55,210 0,66 -19,109 -57,129 -38,19 -91,29 -160,29zm-515 -150l477 0c-6,-90 -31,-157 -73,-202 -42,-44 -97,-67 -166,-67 -66,0 -119,23 -161,68 -42,45 -68,112 -77,201z"/>
  <path id="10" class="fil1" d="M3958 1144c0,33 -10,68 -30,105 -19,37 -49,73 -89,106 -40,34 -91,61 -152,81 -61,21 -130,31 -206,31 -162,0 -289,-47 -380,-142 -91,-95 -137,-222 -137,-381 0,-108 21,-203 63,-286 42,-83 102,-147 181,-192 79,-45 174,-68 283,-68 68,0 131,10 187,30 57,20 105,46 144,77 39,32 70,65 90,101 21,36 32,69 32,100 0,32 -12,58 -35,80 -24,22 -52,33 -85,33 -22,0 -40,-6 -54,-17 -14,-11 -31,-29 -49,-54 -32,-49 -66,-85 -101,-110 -35,-24 -80,-36 -133,-36 -78,0 -140,30 -188,91 -48,61 -71,143 -71,249 0,49 6,95 18,136 12,41 30,77 53,106 23,29 51,51 84,66 33,15 69,23 108,23 53,0 98,-12 135,-36 38,-24 71,-62 100,-112 16,-30 33,-53 52,-69 18,-17 41,-25 68,-25 32,0 59,12 80,37 21,24 32,50 32,78z"/>
  <path id="11" class="fil1" d="M4201 424l29 0 0 -158c0,-42 1,-76 3,-100 2,-24 9,-45 19,-62 10,-18 25,-33 44,-44 19,-11 40,-17 64,-17 33,0 63,12 90,37 18,17 29,37 34,61 5,24 7,58 7,103l0 179 96 0c37,0 66,9 85,26 20,18 30,40 30,68 0,36 -14,60 -42,74 -28,14 -68,21 -120,21l-49 0 0 483c0,41 1,73 4,95 3,22 11,40 23,54 13,14 33,21 61,21 15,0 36,-3 62,-8 26,-5 47,-8 61,-8 21,0 40,9 58,26 17,17 25,38 25,63 0,42 -23,75 -69,97 -46,23 -113,34 -200,34 -82,0 -144,-14 -186,-41 -42,-28 -70,-66 -83,-115 -13,-49 -20,-114 -20,-195l0 -505 -35 0c-38,0 -67,-9 -87,-27 -20,-18 -30,-41 -30,-68 0,-27 11,-50 31,-68 21,-17 51,-26 91,-26z"/>
  <path id="12" class="fil1" d="M5146 1090l0 220c0,53 -12,93 -37,120 -25,27 -57,40 -95,40 -38,0 -69,-13 -93,-40 -24,-27 -36,-67 -36,-119l0 -732c0,-118 43,-177 128,-177 43,0 75,14 94,41 19,28 30,69 32,123 31,-54 63,-95 97,-123 33,-28 77,-41 133,-41 55,0 109,14 161,41 52,28 78,64 78,110 0,32 -11,59 -33,80 -22,21 -46,31 -72,31 -10,0 -33,-6 -70,-18 -37,-12 -70,-18 -98,-18 -38,0 -70,10 -94,30 -24,20 -43,50 -57,90 -13,40 -23,87 -28,142 -5,55 -8,122 -8,201z"/>
  <path id="13" class="fil1" d="M6658 935c0,79 -12,151 -36,217 -25,66 -60,123 -106,170 -46,48 -102,84 -166,109 -64,25 -136,38 -217,38 -80,0 -152,-13 -215,-38 -63,-26 -119,-62 -165,-110 -46,-48 -82,-104 -106,-169 -24,-65 -36,-137 -36,-216 0,-80 12,-153 36,-219 25,-66 60,-123 105,-170 46,-47 101,-83 166,-108 65,-25 136,-38 215,-38 80,0 152,13 217,38 65,26 120,62 167,110 46,47 82,104 106,170 24,65 36,138 36,217zm-264 0c0,-107 -24,-190 -71,-250 -47,-60 -110,-89 -190,-89 -52,0 -97,13 -136,40 -39,27 -69,66 -90,118 -21,52 -32,113 -32,182 0,69 11,129 31,180 21,51 51,91 89,118 39,27 85,41 137,41 80,0 143,-30 190,-90 47,-60 71,-143 71,-249z"/>
  <g>
   <path class="fil0 str1" d="M7012 197l320 947 321 -953c17,-50 29,-85 37,-105 9,-20 22,-37 41,-53 19,-16 46,-24 79,-24 24,0 47,6 68,18 21,12 37,28 49,49 12,20 18,40 18,61 0,14 -2,29 -6,46 -4,16 -9,32 -14,48 -6,16 -12,32 -17,49l-342 923c-12,35 -25,69 -37,101 -12,32 -26,60 -42,84 -16,24 -37,44 -64,59 -27,15 -59,23 -98,23 -39,0 -71,-8 -98,-23 -27,-15 -48,-35 -64,-60 -16,-25 -31,-53 -43,-85 -12,-31 -24,-65 -36,-100l-336 -915c-6,-16 -12,-33 -18,-49 -6,-16 -11,-34 -15,-52 -4,-19 -6,-35 -6,-47 0,-33 13,-62 39,-89 26,-27 60,-40 99,-40 49,0 83,15 103,45 20,30 41,78 62,143z"/>
  </g>
  <g>
   <path id="1" class="fil0 str1" d="M8378 550l0 760c0,53 -12,92 -37,119 -25,27 -57,40 -95,40 -38,0 -70,-14 -94,-41 -24,-28 -36,-67 -36,-118l0 -752c0,-52 12,-91 36,-118 24,-26 55,-39 94,-39 38,0 70,13 95,39 25,26 37,63 37,110zm-130 -272c-36,0 -68,-11 -94,-34 -26,-22 -39,-54 -39,-95 0,-37 13,-67 40,-91 27,-24 58,-36 93,-36 34,0 64,11 90,33 26,22 39,54 39,95 0,40 -13,72 -38,95 -26,23 -56,34 -91,34z"/>
  </g>
  <g>
   <path id="2" class="fil0 str1" d="M9497 1126c0,72 -18,134 -53,186 -35,52 -87,91 -157,117 -69,27 -153,40 -252,40 -94,0 -175,-14 -243,-43 -67,-29 -117,-65 -149,-108 -32,-43 -48,-86 -48,-130 0,-29 10,-54 31,-74 20,-21 46,-31 78,-31 28,0 49,7 63,20 15,13 29,32 42,57 27,47 59,82 97,105 37,23 89,35 154,35 53,0 96,-12 129,-35 34,-23 51,-50 51,-81 0,-46 -17,-80 -52,-101 -35,-21 -93,-41 -173,-61 -90,-22 -164,-46 -221,-71 -57,-25 -102,-58 -136,-98 -34,-40 -51,-90 -51,-149 0,-53 16,-103 47,-150 32,-47 78,-84 139,-112 61,-28 135,-42 222,-42 68,0 129,7 183,21 54,14 100,33 136,57 36,24 64,50 83,79 19,29 29,57 29,85 0,30 -10,55 -31,74 -20,19 -49,29 -86,29 -27,0 -50,-8 -69,-23 -19,-15 -40,-38 -65,-69 -20,-26 -43,-46 -70,-62 -27,-15 -63,-23 -110,-23 -47,0 -87,10 -118,30 -31,20 -47,46 -47,76 0,28 12,50 35,68 23,18 54,33 93,44 39,12 93,26 162,42 82,20 148,44 200,71 52,28 91,60 117,98 27,37 40,80 40,129z"/>
  </g>
  <g>
   <path id="3" class="fil0 str1" d="M9982 550l0 760c0,53 -12,92 -37,119 -25,27 -57,40 -95,40 -38,0 -70,-14 -94,-41 -24,-28 -36,-67 -36,-118l0 -752c0,-52 12,-91 36,-118 24,-26 55,-39 94,-39 38,0 70,13 95,39 25,26 37,63 37,110zm-130 -272c-36,0 -68,-11 -94,-34 -26,-22 -39,-54 -39,-95 0,-37 13,-67 40,-91 27,-24 58,-36 93,-36 34,0 64,11 90,33 26,22 39,54 39,95 0,40 -13,72 -38,95 -26,23 -56,34 -91,34z"/>
  </g>
  <g>
   <path id="4" class="fil0 str1" d="M11239 935c0,79 -12,151 -36,217 -25,66 -60,123 -106,170 -46,48 -102,84 -166,109 -64,25 -136,38 -217,38 -80,0 -152,-13 -215,-38 -63,-26 -119,-62 -165,-110 -46,-48 -82,-104 -106,-169 -24,-65 -36,-137 -36,-216 0,-80 12,-153 36,-219 25,-66 60,-123 105,-170 46,-47 101,-83 166,-108 65,-25 136,-38 215,-38 80,0 152,13 217,38 65,26 120,62 167,110 46,47 82,104 106,170 24,65 36,138 36,217zm-264 0c0,-107 -24,-190 -71,-250 -47,-60 -110,-89 -190,-89 -52,0 -97,13 -136,40 -39,27 -69,66 -90,118 -21,52 -32,113 -32,182 0,69 11,129 31,180 21,51 51,91 89,118 39,27 85,41 137,41 80,0 143,-30 190,-90 47,-60 71,-143 71,-249z"/>
  </g>
  <g>
   <path id="5" class="fil0 str1" d="M11684 546l0 32c46,-61 97,-106 152,-134 55,-29 118,-43 189,-43 69,0 131,15 186,45 55,30 95,73 122,128 17,32 29,67 34,104 5,37 8,85 8,142l0 490c0,53 -12,92 -36,119 -24,27 -56,40 -94,40 -39,0 -71,-14 -96,-41 -24,-28 -36,-67 -36,-118l0 -439c0,-86 -12,-153 -36,-199 -24,-46 -72,-69 -144,-69 -47,0 -89,14 -128,42 -38,28 -67,66 -85,115 -13,39 -19,112 -19,220l0 329c0,53 -12,93 -37,120 -25,27 -57,40 -95,40 -38,0 -69,-14 -93,-41 -24,-28 -36,-67 -36,-118l0 -760c0,-50 11,-87 33,-112 22,-25 52,-37 89,-37 23,0 44,6 62,16 19,11 34,27 45,49 11,22 17,49 17,80z"/>
  </g>
  <path id="6" class="fil2" d="M7012 197l320 947 321 -953c17,-50 29,-85 37,-105 9,-20 22,-37 41,-53 19,-16 46,-24 79,-24 24,0 47,6 68,18 21,12 37,28 49,49 12,20 18,40 18,61 0,14 -2,29 -6,46 -4,16 -9,32 -14,48 -6,16 -12,32 -17,49l-342 923c-12,35 -25,69 -37,101 -12,32 -26,60 -42,84 -16,24 -37,44 -64,59 -27,15 -59,23 -98,23 -39,0 -71,-8 -98,-23 -27,-15 -48,-35 -64,-60 -16,-25 -31,-53 -43,-85 -12,-31 -24,-65 -36,-100l-336 -915c-6,-16 -12,-33 -18,-49 -6,-16 -11,-34 -15,-52 -4,-19 -6,-35 -6,-47 0,-33 13,-62 39,-89 26,-27 60,-40 99,-40 49,0 83,15 103,45 20,30 41,78 62,143z"/>
  <path id="7" class="fil2" d="M8378 550l0 760c0,53 -12,92 -37,119 -25,27 -57,40 -95,40 -38,0 -70,-14 -94,-41 -24,-28 -36,-67 -36,-118l0 -752c0,-52 12,-91 36,-118 24,-26 55,-39 94,-39 38,0 70,13 95,39 25,26 37,63 37,110zm-130 -272c-36,0 -68,-11 -94,-34 -26,-22 -39,-54 -39,-95 0,-37 13,-67 40,-91 27,-24 58,-36 93,-36 34,0 64,11 90,33 26,22 39,54 39,95 0,40 -13,72 -38,95 -26,23 -56,34 -91,34z"/>
  <path id="8" class="fil2" d="M9497 1126c0,72 -18,134 -53,186 -35,52 -87,91 -157,117 -69,27 -153,40 -252,40 -94,0 -175,-14 -243,-43 -67,-29 -117,-65 -149,-108 -32,-43 -48,-86 -48,-130 0,-29 10,-54 31,-74 20,-21 46,-31 78,-31 28,0 49,7 63,20 15,13 29,32 42,57 27,47 59,82 97,105 37,23 89,35 154,35 53,0 96,-12 129,-35 34,-23 51,-50 51,-81 0,-46 -17,-80 -52,-101 -35,-21 -93,-41 -173,-61 -90,-22 -164,-46 -221,-71 -57,-25 -102,-58 -136,-98 -34,-40 -51,-90 -51,-149 0,-53 16,-103 47,-150 32,-47 78,-84 139,-112 61,-28 135,-42 222,-42 68,0 129,7 183,21 54,14 100,33 136,57 36,24 64,50 83,79 19,29 29,57 29,85 0,30 -10,55 -31,74 -20,19 -49,29 -86,29 -27,0 -50,-8 -69,-23 -19,-15 -40,-38 -65,-69 -20,-26 -43,-46 -70,-62 -27,-15 -63,-23 -110,-23 -47,0 -87,10 -118,30 -31,20 -47,46 -47,76 0,28 12,50 35,68 23,18 54,33 93,44 39,12 93,26 162,42 82,20 148,44 200,71 52,28 91,60 117,98 27,37 40,80 40,129z"/>
  <path id="9" class="fil2" d="M9982 550l0 760c0,53 -12,92 -37,119 -25,27 -57,40 -95,40 -38,0 -70,-14 -94,-41 -24,-28 -36,-67 -36,-118l0 -752c0,-52 12,-91 36,-118 24,-26 55,-39 94,-39 38,0 70,13 95,39 25,26 37,63 37,110zm-130 -272c-36,0 -68,-11 -94,-34 -26,-22 -39,-54 -39,-95 0,-37 13,-67 40,-91 27,-24 58,-36 93,-36 34,0 64,11 90,33 26,22 39,54 39,95 0,40 -13,72 -38,95 -26,23 -56,34 -91,34z"/>
  <path id="10" class="fil2" d="M11239 935c0,79 -12,151 -36,217 -25,66 -60,123 -106,170 -46,48 -102,84 -166,109 -64,25 -136,38 -217,38 -80,0 -152,-13 -215,-38 -63,-26 -119,-62 -165,-110 -46,-48 -82,-104 -106,-169 -24,-65 -36,-137 -36,-216 0,-80 12,-153 36,-219 25,-66 60,-123 105,-170 46,-47 101,-83 166,-108 65,-25 136,-38 215,-38 80,0 152,13 217,38 65,26 120,62 167,110 46,47 82,104 106,170 24,65 36,138 36,217zm-264 0c0,-107 -24,-190 -71,-250 -47,-60 -110,-89 -190,-89 -52,0 -97,13 -136,40 -39,27 -69,66 -90,118 -21,52 -32,113 -32,182 0,69 11,129 31,180 21,51 51,91 89,118 39,27 85,41 137,41 80,0 143,-30 190,-90 47,-60 71,-143 71,-249z"/>
  <path id="11" class="fil2" d="M11684 546l0 32c46,-61 97,-106 152,-134 55,-29 118,-43 189,-43 69,0 131,15 186,45 55,30 95,73 122,128 17,32 29,67 34,104 5,37 8,85 8,142l0 490c0,53 -12,92 -36,119 -24,27 -56,40 -94,40 -39,0 -71,-14 -96,-41 -24,-28 -36,-67 -36,-118l0 -439c0,-86 -12,-153 -36,-199 -24,-46 -72,-69 -144,-69 -47,0 -89,14 -128,42 -38,28 -67,66 -85,115 -13,39 -19,112 -19,220l0 329c0,53 -12,93 -37,120 -25,27 -57,40 -95,40 -38,0 -69,-14 -93,-41 -24,-28 -36,-67 -36,-118l0 -760c0,-50 11,-87 33,-112 22,-25 52,-37 89,-37 23,0 44,6 62,16 19,11 34,27 45,49 11,22 17,49 17,80z"/>
 </g>
</svg>
