<?xml version="1.0" encoding="UTF-8"?>
<!DOCTYPE svg PUBLIC "-//W3C//DTD SVG 1.1//EN" "http://www.w3.org/Graphics/SVG/1.1/DTD/svg11.dtd">
<!-- Creator: CorelDRAW X6 -->
<svg xmlns="http://www.w3.org/2000/svg" xml:space="preserve" width="9.50557in" height="6.21406in" version="1.1" style="shape-rendering:geometricPrecision; text-rendering:geometricPrecision; image-rendering:optimizeQuality; fill-rule:evenodd; clip-rule:evenodd"
viewBox="0 0 5683 3715"
 xmlns:xlink="http://www.w3.org/1999/xlink">
 <defs>
  <style type="text/css">
   <![CDATA[
    .str0 {stroke:#201E1E;stroke-width:47.8462}
    .str1 {stroke:#C33437;stroke-width:47.8462}
    .fil0 {fill:none;fill-rule:nonzero}
    .fil1 {fill:#201E1E;fill-rule:nonzero}
    .fil2 {fill:#C33437;fill-rule:nonzero}
   ]]>
  </style>
 </defs>
 <g id="Camada_x0020_1">
  <metadata id="CorelCorpID_0Corel-Layer"/>
  <g>
   <path class="fil0 str0" d="M760 807l0 790 1472 0c108,0 189,24 242,73 54,48 80,113 80,192 0,79 -26,144 -78,194 -53,50 -134,75 -244,75l-1472 0 0 998 1653 0c112,0 196,26 252,77 57,51 86,121 86,206 0,82 -29,150 -86,201 -56,51 -140,77 -252,77l-1927 0c-154,0 -265,-34 -333,-103 -68,-68 -102,-179 -102,-332l0 -2449 709 0z"/>
   <path id="1" class="fil1" d="M760 807l0 790 1472 0c108,0 189,24 242,73 54,48 80,113 80,192 0,79 -26,144 -78,194 -53,50 -134,75 -244,75l-1472 0 0 998 1653 0c112,0 196,26 252,77 57,51 86,121 86,206 0,82 -29,150 -86,201 -56,51 -140,77 -252,77l-1927 0c-154,0 -265,-34 -333,-103 -68,-68 -102,-179 -102,-332l0 -2449 709 0z"/>
  </g>
  <g>
   <path class="fil0 str1" d="M3346 489l792 2347 795 -2363c42,-125 73,-211 93,-259 21,-49 55,-92 103,-131 48,-39 113,-59 196,-59 60,0 117,15 169,46 51,30 92,70 121,121 29,50 44,100 44,152 0,34 -5,73 -15,113 -9,40 -21,80 -35,119 -15,39 -29,79 -43,121l-847 2288c-31,87 -61,170 -91,249 -30,78 -65,148 -105,208 -39,60 -92,108 -158,147 -66,38 -147,57 -242,57 -96,0 -177,-19 -243,-56 -66,-38 -119,-86 -160,-148 -40,-62 -76,-131 -106,-210 -30,-77 -60,-161 -90,-248l-833 -2269c-15,-41 -29,-82 -44,-121 -2,-6 -2604,-12 -2606,-18 -24,-67 -15,-243 -15,-314 0,-172 118,-226 286,-236 8,-1 2616,-1 2625,-1 121,0 206,37 256,111 51,74 102,192 154,355z"/>
   <path id="1" class="fil2" d="M3346 489l792 2347 795 -2363c42,-125 73,-211 93,-259 21,-49 55,-92 103,-131 48,-39 113,-59 196,-59 60,0 117,15 169,46 51,30 92,70 121,121 29,50 44,100 44,152 0,34 -5,73 -15,113 -9,40 -21,80 -35,119 -15,39 -29,79 -43,121l-847 2288c-31,87 -61,170 -91,249 -30,78 -65,148 -105,208 -39,60 -92,108 -158,147 -66,38 -147,57 -242,57 -96,0 -177,-19 -243,-56 -66,-38 -119,-86 -160,-148 -40,-62 -76,-131 -106,-210 -30,-77 -60,-161 -90,-248l-833 -2269c-15,-41 -29,-82 -44,-121 -2,-6 -2604,-12 -2606,-18 -24,-67 -15,-243 -15,-314 0,-172 118,-226 286,-236 8,-1 2616,-1 2625,-1 121,0 206,37 256,111 51,74 102,192 154,355z"/>
  </g>
 </g>
</svg>
