<?xml version="1.0" encoding="utf-8"?>
<!-- Generator: Adobe Illustrator 15.0.0, SVG Export Plug-In . SVG Version: 6.00 Build 0)  -->
<!DOCTYPE svg PUBLIC "-//W3C//DTD SVG 1.1//EN" "http://www.w3.org/Graphics/SVG/1.1/DTD/svg11.dtd">
<svg version="1.1" id="Layer_1" xmlns="http://www.w3.org/2000/svg" xmlns:xlink="http://www.w3.org/1999/xlink" x="0px" y="0px"
	 width="345.149px" height="96.318px" viewBox="0 0 345.149 96.318" enable-background="new 0 0 345.149 96.318"
	 xml:space="preserve">
<g>
	<path fill-rule="evenodd" clip-rule="evenodd" fill="#282425" d="M164.901,4.694c11.855-1.268,20.329,4.148,24.509,10.542
		c4.831,7.387,6.804,22.091,1.582,32.416c-9.146,18.083-36.634,17.793-45.593,0c-2.1-4.171-3.726-11.138-3.163-18.448
		c0.589-7.646,3.187-12.447,6.852-16.603C152.563,8.658,158.064,5.424,164.901,4.694z M163.319,49.232
		c11.171,4.099,18.185-6.036,18.185-16.34c0-10.593-5.004-18.501-15.813-16.866C152.205,18.065,151.215,44.792,163.319,49.232z"/>
	<path fill-rule="evenodd" clip-rule="evenodd" fill="#282425" d="M245.808,17.871c-3.376,1.629-6.863,3.151-10.277,4.743
		c-2.782-3.228-5.031-6.236-10.015-6.852c-10.684-1.32-15.794,6.587-15.813,16.867c-0.016,8.657,3.6,17.383,13.177,17.394
		c6.395,0.008,10.488-3.586,11.596-9.487c-3.252-0.614-7.642-0.088-11.333-0.264c0-3.514,0-7.028,0-10.542
		c7.379,0,14.758,0,22.138,0c0,10.015,0,20.029,0,30.044c-3.25,0-6.501,0-9.751,0c0-1.494,0-2.987,0-4.48
		c-3.792,3.089-8.157,6.008-15.022,6.062c-16.186,0.124-23.691-13.363-23.719-28.2c-0.027-14.95,7.515-27.439,22.138-28.726
		C232.942,3.197,240.807,9.465,245.808,17.871z"/>
	<path fill-rule="evenodd" clip-rule="evenodd" fill="#282425" d="M128.795,38.164c3.789,7.104,8.375,14.817,11.596,21.611
		c-4.744,0-9.488,0-14.231,0c-3.413-6.514-6.756-13.098-10.278-19.502c-2.635,0-5.271,0-7.906,0
		c-0.611,5.978-0.091,13.086-0.264,19.502c-4.304,0-8.609,0-12.913,0c0-17.746,0-35.491,0-53.236
		c-0.012-0.451,0.195-0.683,0.527-0.791c19.627,0.531,42.027-4.144,44.012,14.495C140.269,28.996,136.049,36.075,128.795,38.164z
		 M122.734,29.994c4.188-1.479,5.264-9.591,1.845-12.65c-3.831-3.428-10.212-0.629-16.34-1.581
		c-1.211,3.796-0.19,9.825-0.527,14.495C112.937,29.41,118.459,31.503,122.734,29.994z"/>
	<path fill-rule="evenodd" clip-rule="evenodd" fill="#282425" d="M289.293,5.748c0,3.514,0,7.027,0,10.542
		c-8.346,0-16.691,0-25.036,0c0,3.163,0,6.325,0,9.488c7.205,0.788,16.248-0.261,23.455,0.527c0,3.426,0,6.852,0,10.278
		c-7.818,0-15.637,0-23.455,0c0,4.217,0,8.433,0,12.65c9.048,0,18.096,0,27.145,0c0,3.514,0,7.028,0,10.542
		c-13.354,0-26.706,0-40.059,0c0.176-17.921-0.352-36.544,0.264-54.026C264.168,5.748,276.731,5.748,289.293,5.748z"/>
	<path fill-rule="evenodd" clip-rule="evenodd" fill="#282425" d="M329.352,37.9c3.537,7.62,7.904,14.409,11.596,21.874
		c-4.656,0-9.311,0-13.967,0c-3.982-6.032-7.012-13.018-10.543-19.502c-2.723,0-5.445,0-8.17,0c0,6.501,0,13.002,0,19.502
		c-4.303,0-8.608,0-12.913,0c0.176-17.921-0.352-36.544,0.264-54.026c21.692,0.241,45.321-4.188,44.274,18.448
		C339.555,31.532,335.531,35.843,329.352,37.9z M323.027,29.994c5.363-1.741,5.154-11.157,0.791-13.441
		c-3.756-1.965-9.842-1.2-15.287-0.791c-0.613,4.305-0.088,9.75-0.264,14.495C314.035,29.364,318.098,31.594,323.027,29.994z"/>
	<path fill-rule="evenodd" clip-rule="evenodd" fill="#282425" d="M159.894,73.479c-1.286,0.734-2.814,1.227-3.953,2.108
		c-1.723-1.348-2.182-3.124-4.48-3.426c-8.986-1.18-8.134,15.637-0.264,15.022c2.19-0.171,2.87-1.487,4.48-3.162
		c1.795,0.313,2.805,1.411,4.48,1.845c-2.079,3.717-4.926,6.787-11.069,6.062c-13.821-1.633-11.954-24.421,1.054-24.773
		C154.928,67.024,157.915,69.29,159.894,73.479z"/>
	<path fill-rule="evenodd" clip-rule="evenodd" fill="#282425" d="M227.625,67.417c0.908-0.051,3.785,0.088,5.007,0.527
		c8.986,3.23,9.753,19.878,0,23.456c-10.99,4.032-19.99-8.24-14.495-18.448C219.724,70.002,222.676,67.693,227.625,67.417z
		 M224.725,86.129c9.517,7.193,13.966-15.784,2.372-13.705C222.107,73.32,220.238,82.737,224.725,86.129z"/>
	<path fill-rule="evenodd" clip-rule="evenodd" fill="#282425" d="M275.326,67.417c1.062-0.063,3.861,0.115,5.008,0.527
		c6.776,2.436,10.539,14.887,3.426,21.347c-4.283,3.89-12.397,4.055-16.604-1.054C260.434,80.072,265.741,67.984,275.326,67.417z
		 M272.427,86.129c9.349,7.066,14.232-15.874,2.371-13.705C269.506,73.393,268.268,82.985,272.427,86.129z"/>
	<path fill-rule="evenodd" clip-rule="evenodd" fill="#282425" d="M313.803,73.215c-1.498,0.697-3.191,1.2-4.48,2.108
		c-1.355-1.247-1.406-2.066-2.635-2.635c-9.786-4.531-12.587,14.336-3.162,14.495c2.777,0.047,4.594-1.349,5.27-3.953
		c-1.145-0.61-3.422-0.091-5.006-0.263c0-1.582,0-3.163,0-4.744c3.25,0,6.5,0,9.75,0c0,4.393,0,8.785,0,13.177
		c-1.404,0-2.811,0-4.217,0c0-0.615,0-1.229,0-1.845c-2.42,1.529-4.26,2.944-8.697,2.372c-9.153-1.182-11.989-17.396-3.953-22.928
		C301.952,65.363,311.027,67.339,313.803,73.215z"/>
	<path fill-rule="evenodd" clip-rule="evenodd" fill="#282425" d="M112.719,67.944c0,1.494,0,2.987,0,4.48c-1.933,0-3.866,0-5.798,0
		c-0.615,5.798-0.088,12.738-0.264,18.975c-1.933,0-3.866,0-5.798,0c0-6.325,0-12.65,0-18.975c-2.021,0-4.041,0-6.062,0
		c0-1.493,0-2.987,0-4.48C100.772,67.944,106.745,67.944,112.719,67.944z"/>
	<path fill-rule="evenodd" clip-rule="evenodd" fill="#282425" d="M134.33,67.944c0,1.494,0,2.987,0,4.48c-3.689,0-7.379,0-11.069,0
		c-0.609,0.884-0.092,2.895-0.264,4.217c3.514,0,7.028,0,10.542,0c0,1.581,0,3.163,0,4.744c-3.426,0-6.852,0-10.278,0
		c-0.611,1.234-0.091,3.599-0.264,5.271c3.524,0.605,8.163,0.095,12.123,0.264c0,1.493,0,2.987,0,4.48c-5.886,0-11.772,0-17.658,0
		c0-7.818,0-15.637,0-23.456C123.085,67.944,128.708,67.944,134.33,67.944z"/>
	<path fill-rule="evenodd" clip-rule="evenodd" fill="#282425" d="M170.962,67.944c0,2.812,0,5.623,0,8.434c2.723,0,5.446,0,8.17,0
		c0.613-2.286,0.089-5.709,0.263-8.434c1.933,0,3.866,0,5.798,0c0,7.818,0,15.637,0,23.456c-1.933,0-3.866,0-5.798,0
		c0-3.338,0-6.676,0-10.015c-2.723,0-5.447,0-8.17,0c-0.614,2.812-0.089,6.764-0.263,10.015c-1.933,0-3.866,0-5.798,0
		c0-7.818,0-15.637,0-23.456C167.097,67.944,169.03,67.944,170.962,67.944z"/>
	<path fill-rule="evenodd" clip-rule="evenodd" fill="#282425" d="M197.58,67.944c2.404,5.152,5.554,9.556,7.906,14.759
		c0.614-4.393,0.088-9.926,0.264-14.759c1.756,0,3.514,0,5.271,0c0,7.818,0,15.637,0,23.456c-1.933,0-3.866,0-5.798,0
		c-2.695-4.948-5.263-10.022-8.434-14.495c0,4.832,0,9.663,0,14.495c-1.757,0-3.514,0-5.271,0c0-7.818,0-15.637,0-23.456
		C193.539,67.944,195.56,67.944,197.58,67.944z"/>
	<path fill-rule="evenodd" clip-rule="evenodd" fill="#282425" d="M251.08,67.944c0,6.15,0,12.299,0,18.448c2.986,0,5.974,0,8.961,0
		c0,1.669,0,3.338,0,5.007c-4.92,0-9.84,0-14.759,0c0-7.818,0-15.637,0-23.456C247.214,67.944,249.147,67.944,251.08,67.944z"/>
	<path fill-rule="evenodd" clip-rule="evenodd" fill="#282425" d="M317.492,68.208c1.76-0.612,4.654-0.089,6.852-0.264
		c1.445,2.773,3.027,5.408,4.744,7.907c1.664-2.553,3.244-5.189,4.744-7.907c2.195,0,4.393,0,6.588,0
		c-2.572,4.366-5.633,8.246-8.434,12.387c0,3.69,0,7.379,0,11.069c-1.932,0-3.865,0-5.797,0c-0.484-4.151,0.672-7.435,0-10.542
		c-0.389-1.794-2.57-4.356-3.953-6.325C320.455,71.994,318.848,69.921,317.492,68.208z"/>
	<g>
		<polygon fill="#E97430" points="29.828,5.736 86.753,65.297 86.49,5.736 		"/>
		<polygon fill="#E97430" points="26.138,5.736 5.318,5.736 5.318,86.645 		"/>
		<polygon fill="#E97430" points="86.753,90.861 86.753,69.25 10.062,90.861 		"/>
	</g>
</g>
</svg>
